<mxfile host="app.diagrams.net" agent="Mozilla/5.0 (Windows NT 10.0; Win64; x64) AppleWebKit/537.36 (KHTML, like Gecko) Chrome/128.0.0.0 Safari/537.36" version="24.7.17">
  <diagram id="C5RBs43oDa-KdzZeNtuy" name="Page-1">
    <mxGraphModel dx="993" dy="1283" grid="1" gridSize="10" guides="1" tooltips="1" connect="1" arrows="1" fold="1" page="1" pageScale="1" pageWidth="827" pageHeight="1169" math="0" shadow="0">
      <root>
        <mxCell id="WIyWlLk6GJQsqaUBKTNV-0" />
        <mxCell id="WIyWlLk6GJQsqaUBKTNV-1" parent="WIyWlLk6GJQsqaUBKTNV-0" />
        <mxCell id="Mr9vmFfBj62s4V1Ue4lz-8" value="" style="edgeStyle=orthogonalEdgeStyle;rounded=0;orthogonalLoop=1;jettySize=auto;html=1;endArrow=none;endFill=0;" parent="WIyWlLk6GJQsqaUBKTNV-1" source="Mr9vmFfBj62s4V1Ue4lz-0" target="Mr9vmFfBj62s4V1Ue4lz-7" edge="1">
          <mxGeometry relative="1" as="geometry" />
        </mxCell>
        <mxCell id="Mr9vmFfBj62s4V1Ue4lz-18" style="edgeStyle=orthogonalEdgeStyle;rounded=0;orthogonalLoop=1;jettySize=auto;html=1;entryX=1;entryY=0.5;entryDx=0;entryDy=0;endArrow=none;endFill=0;" parent="WIyWlLk6GJQsqaUBKTNV-1" source="Mr9vmFfBj62s4V1Ue4lz-0" target="Mr9vmFfBj62s4V1Ue4lz-11" edge="1">
          <mxGeometry relative="1" as="geometry" />
        </mxCell>
        <mxCell id="Mr9vmFfBj62s4V1Ue4lz-19" style="edgeStyle=orthogonalEdgeStyle;rounded=0;orthogonalLoop=1;jettySize=auto;html=1;entryX=1;entryY=0.5;entryDx=0;entryDy=0;endArrow=none;endFill=0;" parent="WIyWlLk6GJQsqaUBKTNV-1" source="Mr9vmFfBj62s4V1Ue4lz-0" target="Mr9vmFfBj62s4V1Ue4lz-14" edge="1">
          <mxGeometry relative="1" as="geometry" />
        </mxCell>
        <mxCell id="Mr9vmFfBj62s4V1Ue4lz-20" style="edgeStyle=orthogonalEdgeStyle;rounded=0;orthogonalLoop=1;jettySize=auto;html=1;entryX=1;entryY=0.5;entryDx=0;entryDy=0;endArrow=none;endFill=0;" parent="WIyWlLk6GJQsqaUBKTNV-1" source="Mr9vmFfBj62s4V1Ue4lz-0" target="Mr9vmFfBj62s4V1Ue4lz-17" edge="1">
          <mxGeometry relative="1" as="geometry" />
        </mxCell>
        <mxCell id="Mr9vmFfBj62s4V1Ue4lz-21" style="edgeStyle=orthogonalEdgeStyle;rounded=0;orthogonalLoop=1;jettySize=auto;html=1;entryX=1;entryY=0.5;entryDx=0;entryDy=0;endArrow=none;endFill=0;" parent="WIyWlLk6GJQsqaUBKTNV-1" source="Mr9vmFfBj62s4V1Ue4lz-0" target="Mr9vmFfBj62s4V1Ue4lz-16" edge="1">
          <mxGeometry relative="1" as="geometry" />
        </mxCell>
        <mxCell id="Mr9vmFfBj62s4V1Ue4lz-24" style="edgeStyle=orthogonalEdgeStyle;rounded=0;orthogonalLoop=1;jettySize=auto;html=1;entryX=1;entryY=0.5;entryDx=0;entryDy=0;endArrow=none;endFill=0;" parent="WIyWlLk6GJQsqaUBKTNV-1" source="Mr9vmFfBj62s4V1Ue4lz-0" target="Mr9vmFfBj62s4V1Ue4lz-12" edge="1">
          <mxGeometry relative="1" as="geometry" />
        </mxCell>
        <mxCell id="Mr9vmFfBj62s4V1Ue4lz-25" style="edgeStyle=orthogonalEdgeStyle;rounded=0;orthogonalLoop=1;jettySize=auto;html=1;entryX=1;entryY=0.5;entryDx=0;entryDy=0;endArrow=none;endFill=0;" parent="WIyWlLk6GJQsqaUBKTNV-1" source="Mr9vmFfBj62s4V1Ue4lz-0" target="Mr9vmFfBj62s4V1Ue4lz-15" edge="1">
          <mxGeometry relative="1" as="geometry" />
        </mxCell>
        <mxCell id="Mr9vmFfBj62s4V1Ue4lz-104" value="" style="edgeStyle=orthogonalEdgeStyle;rounded=0;orthogonalLoop=1;jettySize=auto;html=1;exitX=1;exitY=0.5;exitDx=0;exitDy=0;endArrow=none;endFill=0;" parent="WIyWlLk6GJQsqaUBKTNV-1" source="Mr9vmFfBj62s4V1Ue4lz-0" target="Mr9vmFfBj62s4V1Ue4lz-103" edge="1">
          <mxGeometry relative="1" as="geometry" />
        </mxCell>
        <mxCell id="Mr9vmFfBj62s4V1Ue4lz-106" value="1" style="edgeLabel;html=1;align=center;verticalAlign=middle;resizable=0;points=[];" parent="Mr9vmFfBj62s4V1Ue4lz-104" vertex="1" connectable="0">
          <mxGeometry x="0.0085" relative="1" as="geometry">
            <mxPoint as="offset" />
          </mxGeometry>
        </mxCell>
        <mxCell id="Mr9vmFfBj62s4V1Ue4lz-0" value="Студенты" style="rounded=0;whiteSpace=wrap;html=1;" parent="WIyWlLk6GJQsqaUBKTNV-1" vertex="1">
          <mxGeometry x="-110" y="170" width="120" height="60" as="geometry" />
        </mxCell>
        <mxCell id="Mr9vmFfBj62s4V1Ue4lz-49" style="edgeStyle=orthogonalEdgeStyle;rounded=0;orthogonalLoop=1;jettySize=auto;html=1;entryX=1;entryY=0.5;entryDx=0;entryDy=0;endArrow=none;endFill=0;" parent="WIyWlLk6GJQsqaUBKTNV-1" source="Mr9vmFfBj62s4V1Ue4lz-1" target="Mr9vmFfBj62s4V1Ue4lz-46" edge="1">
          <mxGeometry relative="1" as="geometry" />
        </mxCell>
        <mxCell id="Mr9vmFfBj62s4V1Ue4lz-50" style="edgeStyle=orthogonalEdgeStyle;rounded=0;orthogonalLoop=1;jettySize=auto;html=1;entryX=1;entryY=0.5;entryDx=0;entryDy=0;endArrow=none;endFill=0;" parent="WIyWlLk6GJQsqaUBKTNV-1" source="Mr9vmFfBj62s4V1Ue4lz-1" target="Mr9vmFfBj62s4V1Ue4lz-45" edge="1">
          <mxGeometry relative="1" as="geometry" />
        </mxCell>
        <mxCell id="Mr9vmFfBj62s4V1Ue4lz-51" style="edgeStyle=orthogonalEdgeStyle;rounded=0;orthogonalLoop=1;jettySize=auto;html=1;entryX=1;entryY=0.5;entryDx=0;entryDy=0;endArrow=none;endFill=0;" parent="WIyWlLk6GJQsqaUBKTNV-1" source="Mr9vmFfBj62s4V1Ue4lz-1" target="Mr9vmFfBj62s4V1Ue4lz-48" edge="1">
          <mxGeometry relative="1" as="geometry" />
        </mxCell>
        <mxCell id="Mr9vmFfBj62s4V1Ue4lz-52" style="edgeStyle=orthogonalEdgeStyle;rounded=0;orthogonalLoop=1;jettySize=auto;html=1;entryX=1;entryY=0.5;entryDx=0;entryDy=0;endArrow=none;endFill=0;" parent="WIyWlLk6GJQsqaUBKTNV-1" source="Mr9vmFfBj62s4V1Ue4lz-1" target="Mr9vmFfBj62s4V1Ue4lz-47" edge="1">
          <mxGeometry relative="1" as="geometry" />
        </mxCell>
        <mxCell id="Mr9vmFfBj62s4V1Ue4lz-54" value="" style="edgeStyle=orthogonalEdgeStyle;rounded=0;orthogonalLoop=1;jettySize=auto;html=1;endArrow=none;endFill=0;" parent="WIyWlLk6GJQsqaUBKTNV-1" source="Mr9vmFfBj62s4V1Ue4lz-1" target="Mr9vmFfBj62s4V1Ue4lz-53" edge="1">
          <mxGeometry relative="1" as="geometry" />
        </mxCell>
        <mxCell id="Mr9vmFfBj62s4V1Ue4lz-57" value="М" style="edgeLabel;html=1;align=center;verticalAlign=middle;resizable=0;points=[];" parent="Mr9vmFfBj62s4V1Ue4lz-54" vertex="1" connectable="0">
          <mxGeometry x="0.7091" relative="1" as="geometry">
            <mxPoint as="offset" />
          </mxGeometry>
        </mxCell>
        <mxCell id="Mr9vmFfBj62s4V1Ue4lz-59" value="" style="edgeStyle=orthogonalEdgeStyle;rounded=0;orthogonalLoop=1;jettySize=auto;html=1;endArrow=none;endFill=0;" parent="WIyWlLk6GJQsqaUBKTNV-1" source="Mr9vmFfBj62s4V1Ue4lz-1" target="Mr9vmFfBj62s4V1Ue4lz-58" edge="1">
          <mxGeometry relative="1" as="geometry" />
        </mxCell>
        <mxCell id="Mr9vmFfBj62s4V1Ue4lz-62" value="М" style="edgeLabel;html=1;align=center;verticalAlign=middle;resizable=0;points=[];" parent="Mr9vmFfBj62s4V1Ue4lz-59" vertex="1" connectable="0">
          <mxGeometry x="-0.1429" y="4" relative="1" as="geometry">
            <mxPoint x="3" as="offset" />
          </mxGeometry>
        </mxCell>
        <mxCell id="Mr9vmFfBj62s4V1Ue4lz-1" value="Отметки" style="rounded=0;whiteSpace=wrap;html=1;" parent="WIyWlLk6GJQsqaUBKTNV-1" vertex="1">
          <mxGeometry x="-110" y="410" width="120" height="60" as="geometry" />
        </mxCell>
        <mxCell id="Mr9vmFfBj62s4V1Ue4lz-29" style="edgeStyle=orthogonalEdgeStyle;rounded=0;orthogonalLoop=1;jettySize=auto;html=1;entryX=0.5;entryY=1;entryDx=0;entryDy=0;endArrow=none;endFill=0;exitX=0.5;exitY=0;exitDx=0;exitDy=0;" parent="WIyWlLk6GJQsqaUBKTNV-1" source="Mr9vmFfBj62s4V1Ue4lz-2" target="Mr9vmFfBj62s4V1Ue4lz-27" edge="1">
          <mxGeometry relative="1" as="geometry">
            <Array as="points">
              <mxPoint x="120" y="10" />
            </Array>
          </mxGeometry>
        </mxCell>
        <mxCell id="Mr9vmFfBj62s4V1Ue4lz-38" value="1" style="edgeStyle=orthogonalEdgeStyle;rounded=0;orthogonalLoop=1;jettySize=auto;html=1;endArrow=none;endFill=0;" parent="WIyWlLk6GJQsqaUBKTNV-1" source="Mr9vmFfBj62s4V1Ue4lz-2" target="Mr9vmFfBj62s4V1Ue4lz-37" edge="1">
          <mxGeometry relative="1" as="geometry" />
        </mxCell>
        <mxCell id="Mr9vmFfBj62s4V1Ue4lz-42" style="edgeStyle=orthogonalEdgeStyle;rounded=0;orthogonalLoop=1;jettySize=auto;html=1;entryX=0;entryY=0.5;entryDx=0;entryDy=0;endArrow=none;endFill=0;" parent="WIyWlLk6GJQsqaUBKTNV-1" source="Mr9vmFfBj62s4V1Ue4lz-2" target="Mr9vmFfBj62s4V1Ue4lz-26" edge="1">
          <mxGeometry relative="1" as="geometry" />
        </mxCell>
        <mxCell id="Mr9vmFfBj62s4V1Ue4lz-2" value="Группы" style="rounded=0;whiteSpace=wrap;html=1;" parent="WIyWlLk6GJQsqaUBKTNV-1" vertex="1">
          <mxGeometry x="60" y="60" width="120" height="60" as="geometry" />
        </mxCell>
        <mxCell id="Mr9vmFfBj62s4V1Ue4lz-83" style="edgeStyle=orthogonalEdgeStyle;rounded=0;orthogonalLoop=1;jettySize=auto;html=1;entryX=0;entryY=0.5;entryDx=0;entryDy=0;endArrow=none;endFill=0;" parent="WIyWlLk6GJQsqaUBKTNV-1" source="Mr9vmFfBj62s4V1Ue4lz-3" target="Mr9vmFfBj62s4V1Ue4lz-81" edge="1">
          <mxGeometry relative="1" as="geometry">
            <Array as="points">
              <mxPoint x="490" y="308" />
              <mxPoint x="490" y="158" />
            </Array>
          </mxGeometry>
        </mxCell>
        <mxCell id="Mr9vmFfBj62s4V1Ue4lz-85" style="edgeStyle=orthogonalEdgeStyle;rounded=0;orthogonalLoop=1;jettySize=auto;html=1;entryX=0;entryY=0.5;entryDx=0;entryDy=0;endArrow=none;endFill=0;" parent="WIyWlLk6GJQsqaUBKTNV-1" source="Mr9vmFfBj62s4V1Ue4lz-3" target="Mr9vmFfBj62s4V1Ue4lz-82" edge="1">
          <mxGeometry relative="1" as="geometry">
            <Array as="points">
              <mxPoint x="490" y="308" />
              <mxPoint x="490" y="228" />
            </Array>
          </mxGeometry>
        </mxCell>
        <mxCell id="Mr9vmFfBj62s4V1Ue4lz-86" style="edgeStyle=orthogonalEdgeStyle;rounded=0;orthogonalLoop=1;jettySize=auto;html=1;endArrow=none;endFill=0;" parent="WIyWlLk6GJQsqaUBKTNV-1" source="Mr9vmFfBj62s4V1Ue4lz-3" target="Mr9vmFfBj62s4V1Ue4lz-80" edge="1">
          <mxGeometry relative="1" as="geometry">
            <Array as="points">
              <mxPoint x="490" y="308" />
              <mxPoint x="490" y="298" />
            </Array>
          </mxGeometry>
        </mxCell>
        <mxCell id="Mr9vmFfBj62s4V1Ue4lz-87" style="edgeStyle=orthogonalEdgeStyle;rounded=0;orthogonalLoop=1;jettySize=auto;html=1;entryX=0;entryY=0.5;entryDx=0;entryDy=0;endArrow=none;endFill=0;" parent="WIyWlLk6GJQsqaUBKTNV-1" source="Mr9vmFfBj62s4V1Ue4lz-3" target="Mr9vmFfBj62s4V1Ue4lz-79" edge="1">
          <mxGeometry relative="1" as="geometry">
            <Array as="points">
              <mxPoint x="490" y="308" />
              <mxPoint x="490" y="368" />
            </Array>
          </mxGeometry>
        </mxCell>
        <mxCell id="Mr9vmFfBj62s4V1Ue4lz-99" style="edgeStyle=orthogonalEdgeStyle;rounded=0;orthogonalLoop=1;jettySize=auto;html=1;exitX=0.5;exitY=1;exitDx=0;exitDy=0;entryX=0.5;entryY=0;entryDx=0;entryDy=0;endArrow=none;endFill=0;" parent="WIyWlLk6GJQsqaUBKTNV-1" source="Mr9vmFfBj62s4V1Ue4lz-3" target="Mr9vmFfBj62s4V1Ue4lz-97" edge="1">
          <mxGeometry relative="1" as="geometry" />
        </mxCell>
        <mxCell id="Mr9vmFfBj62s4V1Ue4lz-100" value="М" style="edgeLabel;html=1;align=center;verticalAlign=middle;resizable=0;points=[];" parent="Mr9vmFfBj62s4V1Ue4lz-99" vertex="1" connectable="0">
          <mxGeometry x="-0.3413" y="-1" relative="1" as="geometry">
            <mxPoint y="4" as="offset" />
          </mxGeometry>
        </mxCell>
        <mxCell id="Mr9vmFfBj62s4V1Ue4lz-3" value="Выпускные квалификационные работы" style="rounded=0;whiteSpace=wrap;html=1;" parent="WIyWlLk6GJQsqaUBKTNV-1" vertex="1">
          <mxGeometry x="133" y="278" width="120" height="60" as="geometry" />
        </mxCell>
        <mxCell id="Mr9vmFfBj62s4V1Ue4lz-73" style="edgeStyle=orthogonalEdgeStyle;rounded=0;orthogonalLoop=1;jettySize=auto;html=1;entryX=0.5;entryY=0;entryDx=0;entryDy=0;endArrow=none;endFill=0;" parent="WIyWlLk6GJQsqaUBKTNV-1" source="Mr9vmFfBj62s4V1Ue4lz-4" target="Mr9vmFfBj62s4V1Ue4lz-70" edge="1">
          <mxGeometry relative="1" as="geometry" />
        </mxCell>
        <mxCell id="Mr9vmFfBj62s4V1Ue4lz-74" style="edgeStyle=orthogonalEdgeStyle;rounded=0;orthogonalLoop=1;jettySize=auto;html=1;entryX=0;entryY=0.5;entryDx=0;entryDy=0;endArrow=none;endFill=0;" parent="WIyWlLk6GJQsqaUBKTNV-1" source="Mr9vmFfBj62s4V1Ue4lz-4" target="Mr9vmFfBj62s4V1Ue4lz-68" edge="1">
          <mxGeometry relative="1" as="geometry" />
        </mxCell>
        <mxCell id="Mr9vmFfBj62s4V1Ue4lz-75" style="edgeStyle=orthogonalEdgeStyle;rounded=0;orthogonalLoop=1;jettySize=auto;html=1;entryX=0;entryY=0.5;entryDx=0;entryDy=0;endArrow=none;endFill=0;" parent="WIyWlLk6GJQsqaUBKTNV-1" source="Mr9vmFfBj62s4V1Ue4lz-4" target="Mr9vmFfBj62s4V1Ue4lz-67" edge="1">
          <mxGeometry relative="1" as="geometry" />
        </mxCell>
        <mxCell id="Mr9vmFfBj62s4V1Ue4lz-76" style="edgeStyle=orthogonalEdgeStyle;rounded=0;orthogonalLoop=1;jettySize=auto;html=1;entryX=0;entryY=0.5;entryDx=0;entryDy=0;endArrow=none;endFill=0;" parent="WIyWlLk6GJQsqaUBKTNV-1" source="Mr9vmFfBj62s4V1Ue4lz-4" target="Mr9vmFfBj62s4V1Ue4lz-69" edge="1">
          <mxGeometry relative="1" as="geometry" />
        </mxCell>
        <mxCell id="Mr9vmFfBj62s4V1Ue4lz-77" style="edgeStyle=orthogonalEdgeStyle;rounded=0;orthogonalLoop=1;jettySize=auto;html=1;entryX=0;entryY=0.5;entryDx=0;entryDy=0;endArrow=none;endFill=0;" parent="WIyWlLk6GJQsqaUBKTNV-1" source="Mr9vmFfBj62s4V1Ue4lz-4" target="Mr9vmFfBj62s4V1Ue4lz-72" edge="1">
          <mxGeometry relative="1" as="geometry" />
        </mxCell>
        <mxCell id="Mr9vmFfBj62s4V1Ue4lz-78" style="edgeStyle=orthogonalEdgeStyle;rounded=0;orthogonalLoop=1;jettySize=auto;html=1;entryX=0.5;entryY=1;entryDx=0;entryDy=0;endArrow=none;endFill=0;" parent="WIyWlLk6GJQsqaUBKTNV-1" source="Mr9vmFfBj62s4V1Ue4lz-4" target="Mr9vmFfBj62s4V1Ue4lz-71" edge="1">
          <mxGeometry relative="1" as="geometry" />
        </mxCell>
        <mxCell id="Mr9vmFfBj62s4V1Ue4lz-98" value="" style="edgeStyle=orthogonalEdgeStyle;rounded=0;orthogonalLoop=1;jettySize=auto;html=1;endArrow=none;endFill=0;exitX=0;exitY=0.5;exitDx=0;exitDy=0;" parent="WIyWlLk6GJQsqaUBKTNV-1" source="Mr9vmFfBj62s4V1Ue4lz-4" target="Mr9vmFfBj62s4V1Ue4lz-97" edge="1">
          <mxGeometry relative="1" as="geometry" />
        </mxCell>
        <mxCell id="Mr9vmFfBj62s4V1Ue4lz-101" value="1" style="edgeLabel;html=1;align=center;verticalAlign=middle;resizable=0;points=[];" parent="Mr9vmFfBj62s4V1Ue4lz-98" vertex="1" connectable="0">
          <mxGeometry x="-0.0874" y="3" relative="1" as="geometry">
            <mxPoint as="offset" />
          </mxGeometry>
        </mxCell>
        <mxCell id="Mr9vmFfBj62s4V1Ue4lz-4" value="Преподаватели" style="rounded=0;whiteSpace=wrap;html=1;" parent="WIyWlLk6GJQsqaUBKTNV-1" vertex="1">
          <mxGeometry x="273.02" y="483" width="120" height="60" as="geometry" />
        </mxCell>
        <mxCell id="Mr9vmFfBj62s4V1Ue4lz-43" style="edgeStyle=orthogonalEdgeStyle;rounded=0;orthogonalLoop=1;jettySize=auto;html=1;entryX=0.5;entryY=1;entryDx=0;entryDy=0;endArrow=none;endFill=0;" parent="WIyWlLk6GJQsqaUBKTNV-1" source="Mr9vmFfBj62s4V1Ue4lz-5" target="Mr9vmFfBj62s4V1Ue4lz-35" edge="1">
          <mxGeometry relative="1" as="geometry" />
        </mxCell>
        <mxCell id="Mr9vmFfBj62s4V1Ue4lz-44" style="edgeStyle=orthogonalEdgeStyle;rounded=0;orthogonalLoop=1;jettySize=auto;html=1;entryX=0;entryY=0.5;entryDx=0;entryDy=0;endArrow=none;endFill=0;" parent="WIyWlLk6GJQsqaUBKTNV-1" source="Mr9vmFfBj62s4V1Ue4lz-5" target="Mr9vmFfBj62s4V1Ue4lz-36" edge="1">
          <mxGeometry relative="1" as="geometry" />
        </mxCell>
        <mxCell id="Mr9vmFfBj62s4V1Ue4lz-5" value="Типы отметок" style="rounded=0;whiteSpace=wrap;html=1;" parent="WIyWlLk6GJQsqaUBKTNV-1" vertex="1">
          <mxGeometry x="-110" y="607" width="120" height="60" as="geometry" />
        </mxCell>
        <mxCell id="Mr9vmFfBj62s4V1Ue4lz-32" style="edgeStyle=orthogonalEdgeStyle;rounded=0;orthogonalLoop=1;jettySize=auto;html=1;endArrow=none;endFill=0;" parent="WIyWlLk6GJQsqaUBKTNV-1" source="Mr9vmFfBj62s4V1Ue4lz-6" target="Mr9vmFfBj62s4V1Ue4lz-30" edge="1">
          <mxGeometry relative="1" as="geometry" />
        </mxCell>
        <mxCell id="Mr9vmFfBj62s4V1Ue4lz-34" style="edgeStyle=orthogonalEdgeStyle;rounded=0;orthogonalLoop=1;jettySize=auto;html=1;entryX=1;entryY=0.5;entryDx=0;entryDy=0;endArrow=none;endFill=0;" parent="WIyWlLk6GJQsqaUBKTNV-1" source="Mr9vmFfBj62s4V1Ue4lz-6" target="Mr9vmFfBj62s4V1Ue4lz-31" edge="1">
          <mxGeometry relative="1" as="geometry">
            <Array as="points">
              <mxPoint x="460" y="48" />
              <mxPoint x="560" y="48" />
              <mxPoint x="560" y="-82" />
            </Array>
          </mxGeometry>
        </mxCell>
        <mxCell id="Mr9vmFfBj62s4V1Ue4lz-93" style="edgeStyle=orthogonalEdgeStyle;rounded=0;orthogonalLoop=1;jettySize=auto;html=1;entryX=1;entryY=0.5;entryDx=0;entryDy=0;endArrow=none;endFill=0;" parent="WIyWlLk6GJQsqaUBKTNV-1" source="Mr9vmFfBj62s4V1Ue4lz-6" target="Mr9vmFfBj62s4V1Ue4lz-91" edge="1">
          <mxGeometry relative="1" as="geometry">
            <Array as="points">
              <mxPoint x="460" y="210" />
            </Array>
          </mxGeometry>
        </mxCell>
        <mxCell id="Mr9vmFfBj62s4V1Ue4lz-95" value="1" style="edgeLabel;html=1;align=center;verticalAlign=middle;resizable=0;points=[];" parent="Mr9vmFfBj62s4V1Ue4lz-93" vertex="1" connectable="0">
          <mxGeometry x="-0.7281" y="-4" relative="1" as="geometry">
            <mxPoint x="-22" y="8" as="offset" />
          </mxGeometry>
        </mxCell>
        <mxCell id="Mr9vmFfBj62s4V1Ue4lz-6" value="Темы" style="rounded=0;whiteSpace=wrap;html=1;" parent="WIyWlLk6GJQsqaUBKTNV-1" vertex="1">
          <mxGeometry x="400" y="68" width="120" height="60" as="geometry" />
        </mxCell>
        <mxCell id="Mr9vmFfBj62s4V1Ue4lz-7" value="Отчество" style="ellipse;whiteSpace=wrap;html=1;rounded=0;" parent="WIyWlLk6GJQsqaUBKTNV-1" vertex="1">
          <mxGeometry x="-320" y="170" width="160" height="60" as="geometry" />
        </mxCell>
        <mxCell id="Mr9vmFfBj62s4V1Ue4lz-11" value="Дата поступления" style="ellipse;whiteSpace=wrap;html=1;rounded=0;" parent="WIyWlLk6GJQsqaUBKTNV-1" vertex="1">
          <mxGeometry x="-320" y="240" width="160" height="60" as="geometry" />
        </mxCell>
        <mxCell id="Mr9vmFfBj62s4V1Ue4lz-12" value="Дата рожения" style="ellipse;whiteSpace=wrap;html=1;rounded=0;" parent="WIyWlLk6GJQsqaUBKTNV-1" vertex="1">
          <mxGeometry x="-320" y="380" width="160" height="60" as="geometry" />
        </mxCell>
        <mxCell id="Mr9vmFfBj62s4V1Ue4lz-14" value="Имя" style="ellipse;whiteSpace=wrap;html=1;rounded=0;" parent="WIyWlLk6GJQsqaUBKTNV-1" vertex="1">
          <mxGeometry x="-320" y="100" width="160" height="60" as="geometry" />
        </mxCell>
        <mxCell id="Mr9vmFfBj62s4V1Ue4lz-15" value="ID группы" style="ellipse;whiteSpace=wrap;html=1;rounded=0;" parent="WIyWlLk6GJQsqaUBKTNV-1" vertex="1">
          <mxGeometry x="-320" y="310" width="160" height="60" as="geometry" />
        </mxCell>
        <mxCell id="Mr9vmFfBj62s4V1Ue4lz-16" value="ID зачетной книжки" style="ellipse;whiteSpace=wrap;html=1;rounded=0;" parent="WIyWlLk6GJQsqaUBKTNV-1" vertex="1">
          <mxGeometry x="-320" y="-40" width="160" height="60" as="geometry" />
        </mxCell>
        <mxCell id="Mr9vmFfBj62s4V1Ue4lz-17" value="Фамилия" style="ellipse;whiteSpace=wrap;html=1;rounded=0;" parent="WIyWlLk6GJQsqaUBKTNV-1" vertex="1">
          <mxGeometry x="-320" y="30" width="160" height="60" as="geometry" />
        </mxCell>
        <mxCell id="Mr9vmFfBj62s4V1Ue4lz-26" value="Факультет" style="ellipse;whiteSpace=wrap;html=1;rounded=0;" parent="WIyWlLk6GJQsqaUBKTNV-1" vertex="1">
          <mxGeometry x="200" y="58" width="160" height="60" as="geometry" />
        </mxCell>
        <mxCell id="Mr9vmFfBj62s4V1Ue4lz-27" value="Название группы" style="ellipse;whiteSpace=wrap;html=1;rounded=0;" parent="WIyWlLk6GJQsqaUBKTNV-1" vertex="1">
          <mxGeometry x="40" y="-50" width="160" height="60" as="geometry" />
        </mxCell>
        <mxCell id="Mr9vmFfBj62s4V1Ue4lz-30" value="Название темы" style="ellipse;whiteSpace=wrap;html=1;rounded=0;" parent="WIyWlLk6GJQsqaUBKTNV-1" vertex="1">
          <mxGeometry x="380" y="-42" width="160" height="60" as="geometry" />
        </mxCell>
        <mxCell id="Mr9vmFfBj62s4V1Ue4lz-31" value="ID темы" style="ellipse;whiteSpace=wrap;html=1;rounded=0;" parent="WIyWlLk6GJQsqaUBKTNV-1" vertex="1">
          <mxGeometry x="380" y="-112" width="160" height="60" as="geometry" />
        </mxCell>
        <mxCell id="Mr9vmFfBj62s4V1Ue4lz-35" value="Название типа отметки" style="ellipse;whiteSpace=wrap;html=1;rounded=0;" parent="WIyWlLk6GJQsqaUBKTNV-1" vertex="1">
          <mxGeometry x="70" y="622" width="160" height="60" as="geometry" />
        </mxCell>
        <mxCell id="Mr9vmFfBj62s4V1Ue4lz-36" value="ID типа отметки" style="ellipse;whiteSpace=wrap;html=1;rounded=0;" parent="WIyWlLk6GJQsqaUBKTNV-1" vertex="1">
          <mxGeometry x="70" y="552" width="160" height="60" as="geometry" />
        </mxCell>
        <mxCell id="Mr9vmFfBj62s4V1Ue4lz-40" style="edgeStyle=orthogonalEdgeStyle;rounded=0;orthogonalLoop=1;jettySize=auto;html=1;entryX=0.5;entryY=0;entryDx=0;entryDy=0;endArrow=none;endFill=0;" parent="WIyWlLk6GJQsqaUBKTNV-1" source="Mr9vmFfBj62s4V1Ue4lz-37" target="Mr9vmFfBj62s4V1Ue4lz-0" edge="1">
          <mxGeometry relative="1" as="geometry" />
        </mxCell>
        <mxCell id="Mr9vmFfBj62s4V1Ue4lz-41" value="М" style="edgeLabel;html=1;align=center;verticalAlign=middle;resizable=0;points=[];" parent="Mr9vmFfBj62s4V1Ue4lz-40" vertex="1" connectable="0">
          <mxGeometry x="0.1" y="2" relative="1" as="geometry">
            <mxPoint x="-2" as="offset" />
          </mxGeometry>
        </mxCell>
        <mxCell id="Mr9vmFfBj62s4V1Ue4lz-37" value="находяться" style="rhombus;whiteSpace=wrap;html=1;rounded=0;" parent="WIyWlLk6GJQsqaUBKTNV-1" vertex="1">
          <mxGeometry x="-90" y="48" width="80" height="80" as="geometry" />
        </mxCell>
        <mxCell id="Mr9vmFfBj62s4V1Ue4lz-45" value="ID типа отметки" style="ellipse;whiteSpace=wrap;html=1;rounded=0;" parent="WIyWlLk6GJQsqaUBKTNV-1" vertex="1">
          <mxGeometry x="-310" y="530" width="160" height="60" as="geometry" />
        </mxCell>
        <mxCell id="Mr9vmFfBj62s4V1Ue4lz-46" value="ID отметки" style="ellipse;whiteSpace=wrap;html=1;rounded=0;" parent="WIyWlLk6GJQsqaUBKTNV-1" vertex="1">
          <mxGeometry x="-310" y="460" width="160" height="60" as="geometry" />
        </mxCell>
        <mxCell id="Mr9vmFfBj62s4V1Ue4lz-47" value="Отметка" style="ellipse;whiteSpace=wrap;html=1;rounded=0;" parent="WIyWlLk6GJQsqaUBKTNV-1" vertex="1">
          <mxGeometry x="-310" y="665" width="160" height="60" as="geometry" />
        </mxCell>
        <mxCell id="Mr9vmFfBj62s4V1Ue4lz-48" value="ID зачетной книжки" style="ellipse;whiteSpace=wrap;html=1;rounded=0;" parent="WIyWlLk6GJQsqaUBKTNV-1" vertex="1">
          <mxGeometry x="-310" y="595" width="160" height="60" as="geometry" />
        </mxCell>
        <mxCell id="Mr9vmFfBj62s4V1Ue4lz-55" style="edgeStyle=orthogonalEdgeStyle;rounded=0;orthogonalLoop=1;jettySize=auto;html=1;exitX=1;exitY=0.5;exitDx=0;exitDy=0;entryX=0.5;entryY=0;entryDx=0;entryDy=0;endArrow=none;endFill=0;" parent="WIyWlLk6GJQsqaUBKTNV-1" source="Mr9vmFfBj62s4V1Ue4lz-53" target="Mr9vmFfBj62s4V1Ue4lz-5" edge="1">
          <mxGeometry relative="1" as="geometry" />
        </mxCell>
        <mxCell id="Mr9vmFfBj62s4V1Ue4lz-56" value="1" style="edgeLabel;html=1;align=center;verticalAlign=middle;resizable=0;points=[];" parent="Mr9vmFfBj62s4V1Ue4lz-55" vertex="1" connectable="0">
          <mxGeometry x="0.12" y="3" relative="1" as="geometry">
            <mxPoint as="offset" />
          </mxGeometry>
        </mxCell>
        <mxCell id="Mr9vmFfBj62s4V1Ue4lz-53" value="Разделяются" style="rhombus;whiteSpace=wrap;html=1;rounded=0;direction=south;" parent="WIyWlLk6GJQsqaUBKTNV-1" vertex="1">
          <mxGeometry x="-90" y="502" width="80" height="80" as="geometry" />
        </mxCell>
        <mxCell id="Mr9vmFfBj62s4V1Ue4lz-60" style="edgeStyle=orthogonalEdgeStyle;rounded=0;orthogonalLoop=1;jettySize=auto;html=1;exitX=0.5;exitY=0;exitDx=0;exitDy=0;entryX=0.5;entryY=1;entryDx=0;entryDy=0;endArrow=none;endFill=0;" parent="WIyWlLk6GJQsqaUBKTNV-1" source="Mr9vmFfBj62s4V1Ue4lz-58" target="Mr9vmFfBj62s4V1Ue4lz-0" edge="1">
          <mxGeometry relative="1" as="geometry" />
        </mxCell>
        <mxCell id="Mr9vmFfBj62s4V1Ue4lz-66" value="1" style="edgeLabel;html=1;align=center;verticalAlign=middle;resizable=0;points=[];" parent="Mr9vmFfBj62s4V1Ue4lz-60" vertex="1" connectable="0">
          <mxGeometry x="-0.0395" y="-2" relative="1" as="geometry">
            <mxPoint x="-2" y="2" as="offset" />
          </mxGeometry>
        </mxCell>
        <mxCell id="Mr9vmFfBj62s4V1Ue4lz-58" value="Ставятся" style="rhombus;whiteSpace=wrap;html=1;rounded=0;" parent="WIyWlLk6GJQsqaUBKTNV-1" vertex="1">
          <mxGeometry x="-90" y="290" width="80" height="80" as="geometry" />
        </mxCell>
        <mxCell id="Mr9vmFfBj62s4V1Ue4lz-67" value="Кафедра" style="ellipse;whiteSpace=wrap;html=1;rounded=0;" parent="WIyWlLk6GJQsqaUBKTNV-1" vertex="1">
          <mxGeometry x="480" y="553" width="160" height="60" as="geometry" />
        </mxCell>
        <mxCell id="Mr9vmFfBj62s4V1Ue4lz-68" value="Телефон" style="ellipse;whiteSpace=wrap;html=1;rounded=0;" parent="WIyWlLk6GJQsqaUBKTNV-1" vertex="1">
          <mxGeometry x="480" y="623" width="160" height="60" as="geometry" />
        </mxCell>
        <mxCell id="Mr9vmFfBj62s4V1Ue4lz-69" value="Звание" style="ellipse;whiteSpace=wrap;html=1;rounded=0;" parent="WIyWlLk6GJQsqaUBKTNV-1" vertex="1">
          <mxGeometry x="480" y="483" width="160" height="60" as="geometry" />
        </mxCell>
        <mxCell id="Mr9vmFfBj62s4V1Ue4lz-70" value="&amp;nbsp;E-mail" style="ellipse;whiteSpace=wrap;html=1;rounded=0;" parent="WIyWlLk6GJQsqaUBKTNV-1" vertex="1">
          <mxGeometry x="253.02" y="580" width="160" height="60" as="geometry" />
        </mxCell>
        <mxCell id="Mr9vmFfBj62s4V1Ue4lz-71" value="ID преподавателя" style="ellipse;whiteSpace=wrap;html=1;rounded=0;" parent="WIyWlLk6GJQsqaUBKTNV-1" vertex="1">
          <mxGeometry x="253" y="390" width="160" height="60" as="geometry" />
        </mxCell>
        <mxCell id="Mr9vmFfBj62s4V1Ue4lz-72" value="Степень" style="ellipse;whiteSpace=wrap;html=1;rounded=0;" parent="WIyWlLk6GJQsqaUBKTNV-1" vertex="1">
          <mxGeometry x="480" y="413" width="160" height="60" as="geometry" />
        </mxCell>
        <mxCell id="Mr9vmFfBj62s4V1Ue4lz-79" value="ID преподователя" style="ellipse;whiteSpace=wrap;html=1;rounded=0;" parent="WIyWlLk6GJQsqaUBKTNV-1" vertex="1">
          <mxGeometry x="570" y="338" width="160" height="60" as="geometry" />
        </mxCell>
        <mxCell id="Mr9vmFfBj62s4V1Ue4lz-80" value="ID студента" style="ellipse;whiteSpace=wrap;html=1;rounded=0;" parent="WIyWlLk6GJQsqaUBKTNV-1" vertex="1">
          <mxGeometry x="570" y="268" width="160" height="60" as="geometry" />
        </mxCell>
        <mxCell id="Mr9vmFfBj62s4V1Ue4lz-81" value="ID ВКР" style="ellipse;whiteSpace=wrap;html=1;rounded=0;" parent="WIyWlLk6GJQsqaUBKTNV-1" vertex="1">
          <mxGeometry x="570" y="128" width="160" height="60" as="geometry" />
        </mxCell>
        <mxCell id="Mr9vmFfBj62s4V1Ue4lz-82" value="ID темы" style="ellipse;whiteSpace=wrap;html=1;rounded=0;" parent="WIyWlLk6GJQsqaUBKTNV-1" vertex="1">
          <mxGeometry x="570" y="198" width="160" height="60" as="geometry" />
        </mxCell>
        <mxCell id="Mr9vmFfBj62s4V1Ue4lz-94" value="" style="edgeStyle=orthogonalEdgeStyle;rounded=0;orthogonalLoop=1;jettySize=auto;html=1;endArrow=none;endFill=0;" parent="WIyWlLk6GJQsqaUBKTNV-1" source="Mr9vmFfBj62s4V1Ue4lz-91" target="Mr9vmFfBj62s4V1Ue4lz-3" edge="1">
          <mxGeometry relative="1" as="geometry" />
        </mxCell>
        <mxCell id="Mr9vmFfBj62s4V1Ue4lz-96" value="1" style="edgeLabel;html=1;align=center;verticalAlign=middle;resizable=0;points=[];" parent="Mr9vmFfBj62s4V1Ue4lz-94" vertex="1" connectable="0">
          <mxGeometry x="-0.2674" y="-3" relative="1" as="geometry">
            <mxPoint x="2" as="offset" />
          </mxGeometry>
        </mxCell>
        <mxCell id="Mr9vmFfBj62s4V1Ue4lz-91" value="Разделяют" style="rhombus;whiteSpace=wrap;html=1;" parent="WIyWlLk6GJQsqaUBKTNV-1" vertex="1">
          <mxGeometry x="153" y="170" width="80" height="80" as="geometry" />
        </mxCell>
        <mxCell id="Mr9vmFfBj62s4V1Ue4lz-97" value="Курирует" style="rhombus;whiteSpace=wrap;html=1;rounded=0;" parent="WIyWlLk6GJQsqaUBKTNV-1" vertex="1">
          <mxGeometry x="153" y="380" width="80" height="80" as="geometry" />
        </mxCell>
        <mxCell id="Mr9vmFfBj62s4V1Ue4lz-105" value="" style="edgeStyle=orthogonalEdgeStyle;rounded=0;orthogonalLoop=1;jettySize=auto;html=1;endArrow=none;endFill=0;" parent="WIyWlLk6GJQsqaUBKTNV-1" source="Mr9vmFfBj62s4V1Ue4lz-103" target="Mr9vmFfBj62s4V1Ue4lz-3" edge="1">
          <mxGeometry relative="1" as="geometry" />
        </mxCell>
        <mxCell id="Mr9vmFfBj62s4V1Ue4lz-107" value="1" style="edgeLabel;html=1;align=center;verticalAlign=middle;resizable=0;points=[];" parent="Mr9vmFfBj62s4V1Ue4lz-105" vertex="1" connectable="0">
          <mxGeometry x="0.2553" y="4" relative="1" as="geometry">
            <mxPoint x="1" y="3" as="offset" />
          </mxGeometry>
        </mxCell>
        <mxCell id="Mr9vmFfBj62s4V1Ue4lz-103" value="Выполняет" style="rhombus;whiteSpace=wrap;html=1;rounded=0;" parent="WIyWlLk6GJQsqaUBKTNV-1" vertex="1">
          <mxGeometry x="20" y="268" width="80" height="80" as="geometry" />
        </mxCell>
      </root>
    </mxGraphModel>
  </diagram>
</mxfile>
